<svg width="18" height="20" viewBox="0 0 18 20" fill="none" xmlns="http://www.w3.org/2000/svg">
<path d="M15.6312 9.56338L15.1375 4.05986C15.1125 3.77465 14.8973 3.5493 14.6271 3.52113L9.41358 3H9.40691C9.35354 3 9.31185 3.01761 9.28016 3.05106L1.46982 11.2958C1.45436 11.3121 1.4421 11.3314 1.43373 11.3527C1.42536 11.374 1.42105 11.3968 1.42105 11.4199C1.42105 11.443 1.42536 11.4658 1.43373 11.4871C1.4421 11.5084 1.45436 11.5277 1.46982 11.544L7.5373 17.9489C7.56899 17.9824 7.61068 18 7.65571 18C7.70075 18 7.74244 17.9824 7.77413 17.9489L15.5845 9.70423C15.6178 9.66725 15.6345 9.6162 15.6312 9.56338V9.56338ZM11.6451 8.2993C11.0564 8.2993 10.5777 7.79401 10.5777 7.17254C10.5777 6.55106 11.0564 6.04577 11.6451 6.04577C12.2338 6.04577 12.7125 6.55106 12.7125 7.17254C12.7125 7.79401 12.2338 8.2993 11.6451 8.2993Z" fill="white"/>
</svg>
